<svg xmlns="http://www.w3.org/2000/svg" width="880" height="391" viewBox="0 0 880 391" role="img" aria-labelledby="title">
<title id="title">Repository language distribution: JavaScript 38.24%, HTML 26.1%, CSS 14.77%, PHP 13.95%, TypeScript 5%, Dart 1.73%, C++ 0.12%, CMake 0.09%</title>
<style>text{font-family:ui-monospace, SFMono-Regular, Menlo, Monaco, Consolas, "Liberation Mono", "Courier New", monospace}.reveal{animation:appear .45s both}@keyframes appear{from{opacity:0}to{opacity:1}}@media(prefers-reduced-motion:reduce){.reveal{animation:none}}</style>
<rect width="880" height="391" fill="#080a0d"/><text x="28" y="39" font-size="13" fill="#9ba4b0" >chiyo@github</text><text x="132" y="39" font-size="13" fill="#f0f2f5" >~ $ cat ./languages</text><text x="28" y="85" font-size="14" fill="#9ba4b0" >Repository language distribution</text><text x="28" y="121" font-size="14" fill="#f0f2f5" >JavaScript</text><text x="852" y="121" font-size="14" fill="#9ba4b0" text-anchor="end">38.24%</text><rect x="220" y="111" width="555" height="6" rx="3" fill="#20252d"/><rect x="220" y="111" width="212.232" height="6" rx="3" fill="#a9d8f5"/><text x="28" y="149" font-size="14" fill="#f0f2f5" >HTML</text><text x="852" y="149" font-size="14" fill="#9ba4b0" text-anchor="end">26.1%</text><rect x="220" y="139" width="555" height="6" rx="3" fill="#20252d"/><rect x="220" y="139" width="144.855" height="6" rx="3" fill="#93c8e9"/><text x="28" y="177" font-size="14" fill="#f0f2f5" >CSS</text><text x="852" y="177" font-size="14" fill="#9ba4b0" text-anchor="end">14.77%</text><rect x="220" y="167" width="555" height="6" rx="3" fill="#20252d"/><rect x="220" y="167" width="81.974" height="6" rx="3" fill="#7db4db"/><text x="28" y="205" font-size="14" fill="#f0f2f5" >PHP</text><text x="852" y="205" font-size="14" fill="#9ba4b0" text-anchor="end">13.95%</text><rect x="220" y="195" width="555" height="6" rx="3" fill="#20252d"/><rect x="220" y="195" width="77.422" height="6" rx="3" fill="#689fcb"/><text x="28" y="233" font-size="14" fill="#f0f2f5" >TypeScript</text><text x="852" y="233" font-size="14" fill="#9ba4b0" text-anchor="end">5%</text><rect x="220" y="223" width="555" height="6" rx="3" fill="#20252d"/><rect x="220" y="223" width="27.750" height="6" rx="3" fill="#568bb8"/><text x="28" y="261" font-size="14" fill="#f0f2f5" >Dart</text><text x="852" y="261" font-size="14" fill="#9ba4b0" text-anchor="end">1.73%</text><rect x="220" y="251" width="555" height="6" rx="3" fill="#20252d"/><rect x="220" y="251" width="9.601" height="6" rx="3" fill="#4577a4"/><text x="28" y="289" font-size="14" fill="#f0f2f5" >C++</text><text x="852" y="289" font-size="14" fill="#9ba4b0" text-anchor="end">0.12%</text><rect x="220" y="279" width="555" height="6" rx="3" fill="#20252d"/><rect x="220" y="279" width="0.666" height="6" rx="3" fill="#37648d"/><text x="28" y="317" font-size="14" fill="#f0f2f5" >CMake</text><text x="852" y="317" font-size="14" fill="#9ba4b0" text-anchor="end">0.09%</text><rect x="220" y="307" width="555" height="6" rx="3" fill="#20252d"/><rect x="220" y="307" width="0.499" height="6" rx="3" fill="#2c5275"/><text x="28" y="359" font-size="12" fill="#9ba4b0" >Code distribution, not proficiency.</text></svg>